<svg
  version="1.0"
  xmlns="http://www.w3.org/2000/svg"
  width="1024pt"
  height="1024pt"
  viewBox="0 0 1024 1024"
  preserveAspectRatio="xMidYMid meet">

  <g
    transform="translate(0,1024) scale(0.1,-0.1)"
    fill="#000000"
    stroke="none">

    <path
      d="M4189 8885 c-87 -16 -158 -42 -239 -87 -30 -16 -108 -45 -174 -64
        -130 -38 -248 -93 -341 -159 -64 -45 -163 -145 -204 -207 -20 -28 -36 -39 -80
        -51 -81 -23 -250 -108 -355 -180 -146 -99 -418 -379 -785 -806 -196 -229 -293
        -388 -361 -590 -94 -280 -78 -682 38 -925 l28 -59 12 119 c14 148 49 287 96
        389 40 87 53 95 30 20 -51 -169 -86 -339 -99 -484 -8 -86 -19 -194 -25 -241
        -52 -446 101 -821 428 -1048 34 -23 62 -41 62 -39 0 3 -15 30 -34 60 -34 57
        -88 210 -100 282 -7 39 -6 38 33 -29 159 -268 392 -418 696 -448 l112 -12 -67
        -105 c-154 -242 -223 -416 -296 -745 -43 -191 -93 -351 -135 -424 -17 -30 -28
        -56 -25 -59 10 -10 159 81 200 121 22 22 36 31 31 20 -28 -68 -60 -171 -82
        -263 -33 -144 -43 -394 -19 -528 41 -238 171 -457 359 -609 120 -96 121 -96
        83 -12 -32 70 -58 158 -71 243 l-6 40 33 -60 c63 -114 122 -190 217 -286 178
        -177 368 -277 642 -336 106 -23 519 -26 639 -5 215 38 460 118 606 197 l61 33
        116 -59 c142 -73 313 -131 472 -161 159 -30 510 -33 647 -5 366 73 666 287
        828 590 23 43 44 76 46 74 14 -14 -42 -219 -83 -300 -30 -60 -20 -56 87 35
        254 214 374 453 387 773 8 189 -35 453 -97 593 -11 24 -20 47 -20 50 0 4 19
        -12 43 -35 36 -35 161 -113 181 -113 3 0 -7 26 -23 58 -40 79 -82 220 -137
        457 -69 300 -152 505 -294 731 l-58 92 87 7 c177 15 356 77 476 167 91 67 199
        198 254 306 12 24 24 42 26 40 10 -10 -49 -199 -87 -277 -23 -47 -44 -90 -46
        -95 -12 -24 132 88 204 159 122 121 204 275 255 478 29 117 36 344 16 508 -9
        68 -19 165 -22 214 -7 105 -32 224 -80 385 -18 63 -32 116 -30 118 2 2 19 -29
        39 -70 53 -108 85 -234 98 -383 l12 -129 33 69 c69 148 109 372 100 550 -13
        221 -58 393 -153 576 -73 139 -151 242 -398 523 -356 405 -518 563 -696 681
        -96 63 -261 144 -336 164 -27 7 -44 19 -52 35 -21 46 -155 177 -240 233 -100
        67 -229 124 -332 148 -73 17 -104 29 -205 86 -131 73 -365 99 -550 60 -135
        -28 -260 -89 -349 -173 l-67 -63 26 -75 c18 -50 28 -106 32 -167 l6 -93 32 80
        c40 98 69 142 148 218 108 103 251 152 444 152 109 0 153 -13 79 -23 -60 -9
        -156 -50 -237 -102 -62 -40 -113 -93 -155 -160 -18 -30 -18 -30 1 -15 11 8 32
        24 47 36 33 27 119 68 171 82 l38 11 -55 -54 c-30 -30 -60 -64 -66 -76 -10
        -18 -5 -17 34 11 198 136 486 158 760 59 131 -47 309 -162 374 -241 l23 -27
        -53 24 c-87 39 -166 49 -388 49 -188 -1 -213 -3 -301 -26 -53 -15 -114 -36
        -135 -47 l-39 -22 45 7 c78 11 223 7 314 -10 284 -54 497 -200 636 -435 l32
        -55 -34 27 c-49 40 -156 99 -170 95 -7 -3 11 -22 40 -44 29 -21 70 -62 92 -91
        l38 -52 -46 36 c-99 76 -294 148 -381 141 l-36 -3 50 -19 c188 -72 432 -299
        520 -484 47 -97 44 -106 -9 -34 -54 73 -231 218 -225 185 4 -22 -6 -21 -68 11
        -123 61 -210 87 -321 94 -57 4 -105 5 -108 3 -2 -3 30 -17 72 -33 252 -91 468
        -284 609 -541 l37 -68 -98 99 c-147 148 -339 268 -490 305 -80 20 -174 31
        -174 19 0 -5 26 -14 58 -21 149 -33 282 -126 282 -199 0 -11 -16 -43 -36 -72
        -19 -28 -34 -53 -32 -53 2 -1 38 -19 80 -39 67 -33 178 -103 178 -113 0 -2
        -25 9 -55 25 -85 45 -189 64 -314 57 -228 -12 -362 -94 -541 -332 -56 -75 -89
        -108 -130 -132 -56 -34 -94 -42 -106 -21 -19 30 7 162 47 240 11 21 17 38 15
        38 -12 0 -101 -131 -143 -212 -26 -50 -65 -107 -85 -128 -62 -62 -151 -77
        -228 -37 -99 49 -149 169 -160 380 -5 105 -8 127 -17 107 -10 -24 -10 -23 -24
        18 -14 40 -14 38 -15 -86 -2 -297 -106 -459 -283 -439 -25 3 -60 17 -83 33
        -38 27 -58 57 -146 211 -18 32 -49 76 -68 98 -20 22 -32 33 -26 25 19 -28 62
        -168 62 -202 0 -61 -32 -73 -101 -37 -56 28 -112 86 -193 202 -74 105 -134
        156 -252 215 -89 45 -168 62 -281 62 -108 0 -185 -16 -266 -55 l-52 -26 35 31
        c35 31 165 101 209 113 l24 6 -35 39 c-20 22 -41 56 -48 77 -11 35 -10 39 18
        73 39 49 116 95 205 122 102 31 100 30 94 36 -11 11 -174 -24 -253 -55 -143
        -55 -332 -185 -428 -293 -43 -48 -46 -50 -30 -18 72 148 269 369 407 454 83
        52 221 116 250 116 9 0 17 5 17 11 0 13 -137 5 -210 -13 -61 -15 -171 -61
        -249 -104 -43 -24 -62 -30 -58 -20 9 23 0 20 -54 -15 -56 -35 -103 -86 -155
        -164 -20 -30 -39 -54 -41 -51 -8 8 61 153 106 221 87 134 266 289 416 361 l70
        33 -40 1 c-91 0 -279 -73 -370 -144 l-40 -31 22 30 c23 33 101 108 148 142 17
        12 24 23 17 23 -25 0 -118 -49 -160 -85 -23 -20 -42 -33 -42 -28 0 4 23 42 50
        83 89 134 218 248 351 309 151 70 360 107 514 91 44 -4 81 -7 83 -5 7 6 -123
        55 -194 71 -63 15 -118 19 -269 19 -196 -1 -301 -13 -387 -45 -48 -18 -60 -17
        -34 4 176 143 286 206 441 256 84 27 120 33 227 38 192 7 308 -24 483 -129
        l40 -24 -23 32 c-12 17 -43 50 -69 72 -25 23 -42 41 -36 41 31 0 145 -49 199
        -86 l64 -43 -22 41 c-54 96 -237 213 -378 242 l-65 13 40 6 c22 4 84 7 139 7
        83 0 112 -5 189 -31 50 -16 107 -40 127 -51 107 -65 188 -162 238 -287 l29
        -74 6 87 c3 47 16 121 27 163 l22 76 -67 63 c-73 70 -204 142 -310 170 -84 22
        -299 27 -396 9z m2702 -740 c275 -92 490 -241 726 -503 236 -262 453 -511 499
        -571 156 -207 222 -365 248 -595 8 -70 -1 -53 -29 52 -48 178 -127 318 -309
        546 -251 314 -527 608 -734 779 -116 97 -331 238 -436 288 -45 21 -79 39 -75
        39 3 0 52 -16 110 -35z m-3697 -34 c-315 -164 -580 -409 -1092 -1010 -151
        -177 -238 -328 -311 -541 -33 -94 -40 -108 -41 -78 -1 125 83 349 188 498 127
        180 415 512 652 751 174 176 283 260 435 338 70 35 242 99 270 100 6 0 -40
        -26 -101 -58z m-59 -90 c-6 -5 -48 -41 -95 -81 -92 -78 -160 -141 -314 -289
        -104 -100 -98 -84 21 61 78 94 151 158 284 248 94 64 129 84 104 61z m3946
        -67 c62 -41 142 -100 176 -131 56 -49 223 -244 223 -260 0 -4 -39 31 -87 78
        -133 128 -360 331 -405 362 -23 15 -36 27 -31 27 6 0 62 -34 124 -76z m-3230
        -1419 c22 -51 30 -53 66 -25 44 34 110 21 150 -30 7 -8 13 -34 13 -57 0 -92
        -96 -142 -172 -89 l-38 25 0 -37 c1 -77 63 -174 137 -215 67 -36 128 -43 198
        -22 89 25 140 63 181 131 10 18 12 18 28 1 10 -9 24 -17 32 -17 22 0 17 -32
        -14 -81 -37 -58 -93 -106 -161 -138 -49 -23 -69 -26 -161 -25 -97 0 -110 2
        -175 32 -79 37 -113 66 -154 132 -88 139 -80 329 17 433 14 15 27 27 29 27 2
        0 13 -20 24 -45z m2535 -94 c24 -80 16 -202 -19 -272 -112 -230 -423 -290
        -612 -117 -31 28 -67 71 -82 95 -25 43 -25 44 -7 58 11 8 22 15 26 15 16 0
        128 102 128 116 0 25 39 93 59 104 26 14 82 12 102 -3 70 -54 35 -177 -51
        -177 -35 0 -86 23 -93 42 -11 26 -7 -36 5 -73 14 -47 61 -98 114 -125 29 -14
        60 -19 124 -19 75 0 91 3 132 27 59 36 113 98 132 156 20 58 20 177 1 232 -20
        56 -19 61 5 25 11 -16 28 -54 36 -84z m-1168 -217 c87 -18 177 -52 223 -85 28
        -20 29 -23 15 -37 -9 -9 -37 -19 -63 -22 l-48 -6 80 -27 c121 -41 255 -127
        366 -234 53 -51 99 -93 103 -93 3 0 24 13 47 29 69 51 222 91 343 91 234 0
        458 -106 638 -300 113 -121 173 -234 205 -383 18 -87 13 -317 -9 -387 l-14
        -45 -6 105 c-7 120 -42 252 -90 342 -17 32 -33 56 -35 54 -3 -2 2 -17 10 -33
        21 -39 37 -134 37 -214 0 -169 -60 -336 -171 -474 -71 -88 -104 -117 -71 -64
        56 92 65 232 22 354 -29 84 -36 85 -32 2 7 -131 -61 -285 -181 -413 -51 -55
        -145 -134 -159 -134 -3 0 4 26 16 58 17 47 20 81 21 197 0 127 -2 147 -27 213
        -15 41 -42 98 -60 129 -34 56 -124 163 -137 163 -4 0 7 -30 25 -67 65 -136 82
        -357 39 -503 -35 -116 -130 -240 -249 -325 -55 -38 -137 -85 -150 -85 -3 0 6
        16 19 36 14 20 30 53 36 73 15 46 23 247 14 309 l-8 47 -14 -70 c-29 -142
        -109 -270 -226 -363 -55 -44 -186 -116 -195 -108 -1 2 14 30 33 62 20 32 45
        88 55 124 28 92 50 257 41 305 l-7 40 -8 -54 c-11 -82 -41 -158 -93 -236 -68
        -102 -111 -152 -171 -195 -46 -33 -57 -37 -85 -30 -66 18 -234 32 -302 25 -38
        -3 -100 -13 -136 -22 l-67 -16 -45 31 c-92 64 -196 207 -246 337 -40 104 -41
        104 -35 11 10 -145 60 -291 123 -360 14 -16 19 -27 11 -24 -125 46 -190 88
        -276 181 -75 81 -139 203 -157 301 l-12 61 -7 -45 c-21 -138 -2 -290 47 -377
        13 -24 20 -43 16 -43 -22 0 -165 100 -219 153 -64 63 -139 167 -160 222 -63
        164 -53 397 24 550 l34 70 -40 -40 c-49 -47 -121 -153 -148 -216 -64 -149 -67
        -383 -7 -499 l17 -32 -46 31 c-130 90 -245 232 -285 354 -23 67 -42 193 -35
        230 2 12 -5 4 -15 -18 -49 -99 -49 -271 0 -366 11 -23 19 -42 17 -44 -2 -2
        -29 27 -61 63 -110 127 -175 300 -183 487 -4 89 -2 123 14 178 11 37 17 67 15
        67 -2 0 -20 -33 -39 -74 -49 -107 -67 -192 -68 -328 -1 -124 -5 -128 -30 -33
        -60 232 -3 497 150 696 180 235 468 375 730 355 142 -11 292 -60 334 -111 10
        -12 24 -3 82 56 121 122 266 218 410 271 l63 23 -44 5 c-61 7 -76 33 -38 64
        94 76 361 116 535 80z m1887 -2119 c41 -61 95 -154 120 -207 50 -106 120 -310
        131 -384 l7 -48 -34 39 c-40 45 -146 135 -159 135 -6 0 7 -26 27 -57 81 -128
        152 -349 173 -547 6 -56 18 -137 25 -181 41 -232 43 -386 9 -560 -23 -114 -33
        -125 -34 -35 0 41 -5 108 -10 148 -11 86 -77 287 -126 387 -32 66 -34 68 -29
        30 44 -350 21 -552 -84 -766 -38 -75 -119 -202 -106 -164 31 90 39 150 39 290
        1 139 -20 353 -32 340 -3 -3 -9 -58 -13 -123 -13 -193 -57 -333 -149 -471 -97
        -145 -236 -264 -393 -336 -72 -33 -279 -94 -243 -72 196 123 306 262 370 465
        31 100 33 132 4 77 -42 -81 -139 -194 -228 -267 -65 -53 -184 -114 -270 -138
        -99 -28 -270 -37 -370 -19 l-75 13 80 7 c140 11 251 53 356 135 57 45 165 163
        139 152 -289 -125 -525 -129 -745 -15 -86 45 -229 191 -278 284 -31 60 -77
        173 -77 190 0 3 18 -17 39 -44 96 -122 285 -212 478 -228 131 -11 347 31 464
        90 46 24 161 106 156 111 -3 3 -31 -7 -63 -21 -150 -66 -352 -91 -514 -62
        -349 61 -611 322 -645 640 -5 48 -4 71 5 82 17 20 181 71 260 81 l65 7 -60 19
        c-45 15 -82 18 -150 16 -80 -3 -101 -9 -187 -46 -112 -49 -153 -52 -253 -21
        -55 17 -78 31 -119 72 -77 78 -100 133 -100 239 1 78 4 94 37 163 180 378 800
        394 1314 33 219 -154 470 -435 588 -658 l44 -85 1 71 c1 213 -130 475 -337
        675 -77 75 -220 187 -275 215 -15 8 -28 18 -28 22 0 5 23 14 50 21 67 17 231
        101 294 151 28 21 52 37 54 35 2 -2 -13 -38 -33 -81 -24 -49 -57 -98 -94 -135
        -31 -33 -56 -59 -54 -59 16 0 148 69 202 105 75 49 187 162 223 224 17 29 35
        44 73 60 28 12 65 34 83 50 37 34 39 25 13 -50 -25 -73 -57 -135 -98 -188 -18
        -24 -32 -46 -30 -48 5 -5 155 77 207 114 78 54 177 168 220 253 l23 44 24 -29
        c13 -17 57 -80 98 -140z m-3925 93 c69 -121 173 -215 333 -303 74 -41 95 -40
        55 3 -35 37 -83 125 -108 197 -29 84 -26 92 17 55 20 -18 56 -41 79 -51 25
        -12 51 -34 67 -58 42 -63 147 -170 207 -211 46 -31 191 -110 203 -110 2 0 -16
        21 -40 47 -42 45 -123 190 -123 220 0 10 13 4 38 -19 115 -104 305 -201 520
        -264 8 -2 3 -16 -17 -44 -37 -51 -85 -167 -100 -241 l-12 -55 -84 -12 c-214
        -28 -435 -149 -532 -290 -46 -67 -58 -103 -69 -197 l-7 -59 69 70 c83 84 167
        143 281 196 83 39 223 79 315 91 l47 6 36 -65 c42 -76 129 -168 200 -213 53
        -34 179 -76 258 -86 l47 -6 0 -102 c0 -227 94 -488 234 -652 l45 -53 -67 -30
        c-97 -43 -216 -79 -307 -91 -43 -6 -80 -13 -83 -15 -11 -12 165 -40 250 -41
        l97 0 -42 -22 c-104 -55 -194 -76 -353 -81 -166 -5 -247 6 -391 54 -83 28
        -225 96 -283 136 -65 44 -65 42 0 -31 123 -139 231 -218 369 -268 l66 -24 -95
        5 c-139 9 -249 38 -375 101 -164 81 -305 209 -396 358 -19 31 -37 57 -41 57
        -9 0 29 -123 58 -188 57 -129 224 -321 322 -371 23 -12 42 -23 42 -26 0 -16
        -244 70 -320 113 -291 166 -461 443 -477 780 -3 68 -10 119 -14 115 -5 -5 -16
        -64 -25 -133 -21 -164 -15 -359 14 -447 11 -35 19 -63 17 -63 -1 0 -21 27 -44
        60 -96 137 -154 328 -167 557 -5 95 -1 159 21 348 5 39 5 38 -25 -23 -91 -193
        -139 -377 -140 -537 -1 -118 -10 -112 -42 27 -31 135 -29 308 5 498 14 80 33
        201 41 270 26 206 71 349 156 489 27 45 44 81 38 81 -6 0 -55 -44 -109 -98
        -110 -111 -107 -116 -52 73 37 131 124 322 198 437 53 82 143 198 153 198 4 0
        23 -28 42 -62z" />

    <path
      d="M4962 5980 c-132 -19 -243 -86 -286 -171 -56 -113 -20 -208 118 -313
        78 -59 134 -90 184 -101 29 -6 32 -10 32 -42 0 -51 -26 -97 -81 -147 -91 -82
        -191 -116 -339 -116 -149 0 -261 37 -379 126 -53 40 -131 135 -131 159 0 6 35
        23 77 39 l76 30 -29 23 c-81 64 -221 23 -343 -102 -44 -45 -159 -215 -146
        -215 3 0 29 16 58 35 28 19 55 35 60 35 4 0 36 17 71 39 l64 39 51 -64 c99
        -123 228 -208 381 -251 49 -13 99 -17 200 -17 126 1 141 3 224 33 97 36 154
        67 202 113 l32 30 55 -45 c105 -86 221 -125 392 -134 141 -6 229 11 350 71 99
        49 191 126 251 209 21 28 39 54 41 56 2 2 11 -3 20 -11 15 -12 214 -123 246
        -137 28 -11 -101 157 -175 229 -84 82 -146 113 -224 114 -53 1 -66 -3 -88 -23
        -14 -14 -26 -27 -26 -30 0 -3 26 -14 58 -24 88 -28 90 -30 68 -72 -28 -52
        -142 -155 -211 -191 -82 -43 -174 -64 -281 -64 -146 0 -261 40 -351 123 -51
        47 -73 89 -73 141 0 33 2 35 54 50 63 19 158 80 225 145 57 55 87 130 76 189
        -33 179 -243 280 -503 242z m256 -97 c90 -45 36 -67 -163 -68 -146 0 -195 9
        -195 35 0 14 58 41 109 51 70 12 207 3 249 -18z" />
  </g>
</svg>
